<svg width="187" height="175" viewBox="0 0 187 175" fill="none" xmlns="http://www.w3.org/2000/svg">
<path d="M76.4425 169.698C38.5343 161.521 10.127 127.801 10.127 87.4474C10.127 47.0933 38.5343 13.3741 76.4425 5.1965" stroke="#68D861" stroke-width="0.830734"/>
<path d="M73.0296 10.5556L76.5871 5.36364L71.2042 1.86287" stroke="#68D861" stroke-width="0.830734"/>
<path d="M73.0296 164.446L76.5871 169.638L71.2042 173.139" stroke="#68D861" stroke-width="0.830734"/>
<path d="M111.68 5.19678C149.588 13.3744 177.996 47.0936 177.996 87.4476C177.996 127.802 149.588 161.521 111.68 169.698" stroke="#68D861" stroke-width="0.830734"/>
<path d="M114.575 10.4311L111.017 5.23912L116.4 1.73836" stroke="#68D861" stroke-width="0.830734"/>
<path d="M114.575 164.569L111.017 169.761L116.4 173.262" stroke="#68D861" stroke-width="0.830734"/>
<path d="M52.3703 78.5694C56.5154 59.3546 73.6069 44.9555 94.0615 44.9555C114.516 44.9555 131.608 59.3546 135.753 78.5695" stroke="#68D861" stroke-width="0.830734"/>
<path d="M135.752 96.4304C131.607 115.645 114.516 130.044 94.0611 130.044C73.6065 130.044 56.5149 115.645 52.3699 96.4304" stroke="#68D861" stroke-width="0.830734"/>
<path d="M96.1321 86.5409C50.3911 86.5408 54.1342 74.9413 52.6057 41.4679C51.0772 74.9413 54.9308 86.5404 9.18975 86.5405C54.9308 86.5406 51.2982 98.2506 52.8266 131.724C54.3551 98.2506 50.3911 86.541 96.1321 86.5409Z" fill="white" stroke="#68D861" stroke-width="0.830734"/>
<path d="M178.07 86.5409C132.329 86.5408 136.072 74.9413 134.544 41.4679C133.015 74.9413 136.869 86.5404 91.1277 86.5405C136.869 86.5406 133.236 98.2506 134.765 131.724C136.293 98.2506 132.329 86.541 178.07 86.5409Z" fill="white" stroke="#68D861" stroke-width="0.830734"/>
</svg>
