<svg width="187" height="107" viewBox="0 0 187 107" fill="none" xmlns="http://www.w3.org/2000/svg">
<path d="M52.37 45.505C56.5151 26.2901 73.6066 11.891 94.0612 11.8911C114.516 11.8911 131.607 26.2902 135.752 45.505" stroke="#68D861" stroke-width="0.830734"/>
<path d="M135.752 63.366C131.607 82.5808 114.515 96.9799 94.0608 96.9799C73.6062 96.9799 56.5147 82.5808 52.3696 63.366" stroke="#68D861" stroke-width="0.830734"/>
<path d="M96.1321 53.4765C50.3911 53.4764 54.1342 41.8769 52.6057 8.40347C51.0772 41.8769 54.9308 53.476 9.18975 53.476C54.9308 53.4761 51.2982 65.1862 52.8266 98.6596C54.3551 65.1862 50.3911 53.4765 96.1321 53.4765Z" fill="white" stroke="#68D861" stroke-width="0.830734"/>
<path d="M178.07 53.4765C132.329 53.4764 136.072 41.8769 134.544 8.40347C133.015 41.8769 136.869 53.476 91.1277 53.476C136.869 53.4761 133.236 65.1862 134.765 98.6596C136.293 65.1862 132.329 53.4765 178.07 53.4765Z" fill="white" stroke="#68D861" stroke-width="0.830734"/>
</svg>
