<svg width="174" height="185" viewBox="0 0 174 185" fill="none" xmlns="http://www.w3.org/2000/svg">
<circle cx="86.9959" cy="98.396" r="85.9959" stroke="#68D861"/>
<circle cx="86.9959" cy="98.3961" r="52.4915" stroke="#68D861"/>
<path d="M147.607 159.274C130.62 147.595 110.044 140.759 87.8712 140.759C65.2444 140.759 44.2803 147.878 27.0962 159.998" stroke="#68D861"/>
<path d="M127.308 98.3611C84.9009 98.361 88.3711 87.6069 86.954 56.5732C85.5369 87.6069 89.1097 98.3606 46.7025 98.3607C89.1097 98.3607 85.7418 109.217 87.1589 140.251C88.576 109.217 84.9009 98.3611 127.308 98.3611Z" fill="white" stroke="#68D861"/>
<path d="M47.1358 98.4102H1.1084" stroke="#68D861"/>
<path d="M173.225 98.4102H127.197" stroke="#68D861"/>
<path d="M126.977 0.254616C126.781 0.0593567 126.465 0.0593567 126.269 0.254616L123.088 3.4366C122.892 3.63186 122.892 3.94844 123.088 4.1437C123.283 4.33897 123.599 4.33897 123.795 4.1437L126.623 1.31528L129.451 4.1437C129.647 4.33897 129.963 4.33897 130.159 4.1437C130.354 3.94844 130.354 3.63186 130.159 3.4366L126.977 0.254616ZM126.123 0.60817V46.6356H127.123V0.60817H126.123Z" fill="#68D861"/>
<path d="M140.269 0.254555C140.074 0.0592957 139.757 0.0592957 139.562 0.254555L136.38 3.43654C136.185 3.6318 136.185 3.94838 136.38 4.14364C136.575 4.33891 136.892 4.33891 137.087 4.14364L139.916 1.31522L142.744 4.14364C142.939 4.33891 143.256 4.33891 143.451 4.14364C143.646 3.94838 143.646 3.6318 143.451 3.43654L140.269 0.254555ZM139.416 0.608109V46.6355H140.416V0.608109H139.416Z" fill="#68D861"/>
</svg>
