<svg width="192" height="192" viewBox="0 0 192 192" fill="none" xmlns="http://www.w3.org/2000/svg">
<path d="M99.3913 41.3679C126.74 22.9922 152.17 16.8108 163.319 27.9595C178.756 43.3966 160.967 86.2139 123.586 123.595C86.2057 160.976 43.3883 178.764 27.9513 163.327C12.5142 147.89 30.3031 105.073 67.6839 67.6922C71.5445 63.8316 75.4631 60.18 79.4036 56.7523" stroke="#68D861" stroke-width="0.830734"/>
<path d="M147.272 55.6819C147.467 55.8772 147.784 55.8772 147.979 55.6819L151.161 52.5C151.357 52.3047 151.357 51.9881 151.161 51.7929C150.966 51.5976 150.649 51.5976 150.454 51.7929L147.626 54.6213L144.797 51.7929C144.602 51.5976 144.285 51.5976 144.09 51.7929C143.895 51.9881 143.895 52.3047 144.09 52.5L147.272 55.6819ZM148.126 55.3284L148.126 9.30096L147.126 9.30096L147.126 55.3284L148.126 55.3284Z" fill="#68D861"/>
<path d="M133.979 55.6819C134.175 55.8772 134.491 55.8772 134.687 55.6819L137.869 52.5C138.064 52.3047 138.064 51.9881 137.869 51.7929C137.673 51.5976 137.357 51.5976 137.161 51.7929L134.333 54.6213L131.505 51.7929C131.309 51.5976 130.993 51.5976 130.797 51.7929C130.602 51.9881 130.602 52.3047 130.797 52.5L133.979 55.6819ZM134.833 55.3284L134.833 9.30096L133.833 9.30096L133.833 55.3284L134.833 55.3284Z" fill="#68D861"/>
<path d="M102.782 182.636C102.782 140.565 113.451 144.008 144.239 142.602C113.451 141.196 102.782 144.74 102.782 102.669C102.782 144.74 92.0116 141.399 61.2237 142.805C92.0116 144.211 102.782 140.565 102.782 182.636Z" fill="white" stroke="#68D861" stroke-width="0.830734"/>
<path d="M78.5448 62.9635L79.6069 56.76L73.2535 55.8292" stroke="#68D861" stroke-width="0.830734"/>
</svg>
