<svg width="193" height="193" viewBox="0 0 193 193" fill="none" xmlns="http://www.w3.org/2000/svg">
<ellipse cx="96.5365" cy="96.6551" rx="95.7195" ry="24.8622" transform="rotate(-90 96.5365 96.6551)" stroke="#68D861" stroke-width="0.830734"/>
<ellipse cx="96.5364" cy="96.6548" rx="95.7195" ry="24.8622" stroke="#68D861" stroke-width="0.830734"/>
<path d="M90.1471 44.5537C122.491 76.8975 111.642 82.4529 89.0535 107.203C113.804 84.6145 119.28 73.6878 151.624 106.032C119.281 73.6877 130.129 67.9761 152.718 43.226C127.968 65.8145 122.491 76.8974 90.1471 44.5537Z" fill="white" stroke="#68D861" stroke-width="0.830734"/>
<path d="M57.359 107.84C73.7737 124.255 68.2678 127.074 56.804 139.635C69.3648 128.171 72.1444 122.626 88.5591 139.04C72.1444 122.626 77.6503 119.727 89.1141 107.166C76.5533 118.63 73.7737 124.255 57.359 107.84Z" fill="white" stroke="#68D861" stroke-width="0.830734"/>
</svg>
