<svg width="154" height="91" viewBox="0 0 154 91" fill="none" xmlns="http://www.w3.org/2000/svg">
<path d="M103.302 38.8572H93.7344V36.1313H107.391V38.8572L97.8499 47.0616H107.391V49.7875H93.7344V47.0616L103.302 38.8572Z" fill="white"/>
<path d="M25.9514 50.1221H13.6582V30.9875H25.9514V39.1919H28.6773V47.3695L25.9514 50.1221ZM25.9514 41.9177H16.3841V47.3695H25.9514V41.9177ZM16.3841 33.7134V39.1919H23.2255V33.7134H16.3841Z" fill="white"/>
<path d="M48.6201 31.0142H51.346V36.4659H60.7113V39.1918H51.346V50.1221H48.6201V31.0142Z" fill="white"/>
<path d="M31.8423 47.3962H37.2941V39.1918H33.2052V36.4659H40.0524L40.0467 39.1918V47.3962H45.4984V50.1221H31.8423V47.3962ZM40.0467 33.7401H37.2941V31.0142H40.0467V33.7401Z" fill="white"/>
<path d="M110.574 49.7875V36.1313H124.257V38.8572H113.327V41.5831H119.691V44.3357H113.327V47.0616H124.257V49.7875H110.574Z" fill="white"/>
<path d="M127.469 38.8672L130.178 36.0981V49.806H127.45L127.469 38.8672Z" fill="white"/>
<path d="M127.469 38.8672L130.178 36.0981L140.009 36.0792V38.8672L127.469 38.8672Z" fill="white"/>
<path d="M66.8857 30.3514V29.7675H66.3018H61.3593V28.1656H68.4163V47.3889V47.9728H69.0003H73.3137V49.5543H68.4259L66.8857 48.1022V30.3514Z" fill="white" stroke="white" stroke-width="1.16785"/>
<path d="M90.035 39.0789V49.1658H88.4193V44.4503V43.8664H87.8354H80.9277H79.5201L80.5143 44.8628L109.622 74.0333L108.498 75.1573L77.5571 44.2085V42.1748H87.8354H88.4193V41.5908V38.8322V38.2482H87.8354H77.5571V36.711H87.5984L90.035 39.0789Z" fill="#68D861" stroke="#68D861" stroke-width="1.16785"/>
</svg>
