<svg width="414" height="126" viewBox="0 0 414 126" fill="none" xmlns="http://www.w3.org/2000/svg">
<path d="M413.52 15.1741H195.854V21.1741H413.52V15.1741Z" fill="#64D45E"/>
<path d="M140.975 15.1741H0.468262V21.1741H140.975V15.1741Z" fill="#64D45E"/>
<path d="M413.42 0.144043H0.468262V6.14404H413.42V0.144043Z" fill="#64D45E"/>
<path d="M293.791 58.537H262.507V49.624H307.161V58.537L275.965 85.364H307.161V94.278H262.507V85.364L293.791 58.537Z" fill="white"/>
<path d="M40.6756 94.266H20.577H0.478516V31.699H40.6756V58.526H49.5888V85.266L40.6756 94.266ZM40.6756 67.439H9.39182V85.266H40.6756V67.439ZM9.39182 40.612V58.526H31.7623V40.612H9.39182Z" fill="white"/>
<path d="M114.899 31.7849H123.812V49.6119H154.436V58.5249H123.812V94.2659H114.899V31.7849Z" fill="white"/>
<path d="M59.937 85.3519H77.764V58.5249H64.394V49.6119H86.783L86.764 58.5249V85.3519H104.591V94.2659H59.937V85.3519ZM86.764 40.6989H77.764V31.7849H86.764V40.6989Z" fill="white"/>
<path d="M317.454 94.278V49.624H362.195V58.537H326.455V67.451H347.265V76.451H326.455V85.364H362.195V94.278H317.454Z" fill="white"/>
<path d="M372.528 58.5321L381.387 49.6321V94.3001H372.466L372.528 58.5321Z" fill="white"/>
<path d="M372.528 58.5321L381.387 49.6321H413.532V58.5321H372.528Z" fill="white"/>
<path d="M172.717 19.2249H158.088V17.0879H178.099V85.3299V88.7709H181.54H194.112V90.8779H180.27L176.158 87.0009V22.6669V19.2249H172.717Z" fill="white" stroke="white" stroke-width="6.88324"/>
<mask id="mask0_2029_115" style="mask-type:luminance" maskUnits="userSpaceOnUse" x="207" y="49" width="46" height="46">
<path d="M242.725 49.553H207.866V58.53H242.725V67.646H207.866V77.107V94.204H217.7V77.107H242.725V94.204H252.185V58.53L242.725 49.553Z" fill="white"/>
</mask>
<g mask="url(#mask0_2029_115)">
<path d="M207.866 49.553V36.989H195.303V49.553H207.866ZM242.725 49.553L251.373 40.44L247.737 36.989H242.725V49.553ZM252.185 58.53H264.749V53.133L260.833 49.417L252.185 58.53ZM252.185 94.204V106.767H264.749V94.204H252.185ZM242.725 94.204H230.162V106.767H242.725V94.204ZM242.725 77.107H255.288V64.544H242.725V77.107ZM217.7 77.107V64.544H205.137V77.107H217.7ZM217.7 94.204V106.767H230.263V94.204H217.7ZM207.866 67.646V55.082H195.303V67.646H207.866ZM242.725 67.646V80.209H255.288V67.646H242.725ZM242.725 58.53H255.288V45.967H242.725V58.53ZM207.866 58.53H195.303V71.093H207.866V58.53ZM207.866 94.204H195.303V106.767H207.866V94.204ZM207.866 62.116H242.725V36.989H207.866V62.116ZM234.077 58.666L243.538 67.643L260.833 49.417L251.373 40.44L234.077 58.666ZM239.622 58.53V94.204H264.749V58.53H239.622ZM252.185 81.641H242.725V106.767H252.185V81.641ZM255.288 94.204V77.107H230.162V94.204H255.288ZM242.725 64.544H217.7V89.67H242.725V64.544ZM205.137 77.107V94.204H230.263V77.107H205.137ZM220.43 77.107V67.646H195.303V77.107H220.43ZM207.866 80.209H242.725V55.082H207.866V80.209ZM255.288 67.646V58.53H230.162V67.646H255.288ZM242.725 45.967H207.866V71.093H242.725V45.967ZM220.43 58.53V49.553H195.303V58.53H220.43ZM217.7 81.641H207.866V106.767H217.7V81.641ZM220.429 94.204L220.43 77.107H195.303V94.204H220.429Z" fill="white"/>
</g>
<path d="M0.467926 110.826L413.42 110.826V104.826L0.467926 104.826V110.826Z" fill="#64D45E"/>
<path d="M0.467926 125.855L413.42 125.855V119.855L0.467926 119.855V125.855Z" fill="#64D45E"/>
</svg>
