<svg width="512" height="512" viewBox="0 0 512 512" fill="none" xmlns="http://www.w3.org/2000/svg">
<rect x="244.854" y="208.174" width="217.666" height="6" fill="#64D45E"/>
<rect x="49.4683" y="208.174" width="140.507" height="6" fill="#64D45E"/>
<rect x="49.4683" y="193.144" width="412.952" height="6" fill="#64D45E"/>
<path d="M342.791 251.537H311.507V242.624H356.161V251.537L324.965 278.364H356.161V287.278H311.507V278.364L342.791 251.537Z" fill="white"/>
<path d="M89.6756 287.266H69.577H49.4785V224.699H89.6756V251.526H98.5888V278.266L89.6756 287.266ZM89.6756 260.439H58.3918V278.266H89.6756V260.439ZM58.3918 233.612V251.526H80.7623V233.612H58.3918Z" fill="white"/>
<path d="M163.899 224.785H172.812V242.612H203.436V251.525H172.812V287.266H163.899V224.785Z" fill="white"/>
<path d="M108.937 278.352H126.764V251.525H113.394V242.612H135.783L135.764 251.525V278.352H153.591V287.266H108.937V278.352ZM135.764 233.699H126.764V224.785H135.764V233.699Z" fill="white"/>
<path d="M366.454 287.278V242.624H411.195V251.537H375.455V260.451H396.265V269.451H375.455V278.364H411.195V287.278H366.454Z" fill="white"/>
<path d="M421.528 251.532L430.387 242.632V287.3H421.466L421.528 251.532Z" fill="white"/>
<path d="M421.528 251.532L430.387 242.632L462.532 242.632V251.532L421.528 251.532Z" fill="white"/>
<path d="M221.717 212.225H207.088V210.088H227.099V278.33V281.771H230.54H243.112V283.878H229.27L225.158 280.001V215.667V212.225H221.717Z" fill="white" stroke="white" stroke-width="6.88324"/>
<mask id="path-11-inside-1_418_663" fill="white">
<path d="M291.725 242.553H256.866V251.53H291.725V260.646H256.866V270.107L256.866 287.204H266.7V270.107H291.725V287.204H301.185V251.53L291.725 242.553Z"/>
</mask>
<path d="M256.866 242.553V229.989H244.303V242.553H256.866ZM291.725 242.553L300.373 233.44L296.737 229.989H291.725V242.553ZM301.185 251.53H313.749V246.133L309.833 242.417L301.185 251.53ZM301.185 287.204V299.767H313.749V287.204H301.185ZM291.725 287.204H279.162V299.767H291.725V287.204ZM291.725 270.107H304.288V257.544H291.725V270.107ZM266.7 270.107V257.544H254.137V270.107H266.7ZM266.7 287.204V299.767H279.263V287.204H266.7ZM256.866 270.107L269.43 270.107V270.107H256.866ZM256.866 260.646V248.082H244.303V260.646H256.866ZM291.725 260.646V273.209H304.288V260.646H291.725ZM291.725 251.53H304.288V238.967H291.725V251.53ZM256.866 251.53H244.303V264.093H256.866V251.53ZM256.866 287.204L244.303 287.204L244.303 299.767H256.866V287.204ZM256.866 255.116H291.725V229.989H256.866V255.116ZM283.077 251.666L292.538 260.643L309.833 242.417L300.373 233.44L283.077 251.666ZM288.622 251.53V287.204H313.749V251.53H288.622ZM301.185 274.641H291.725V299.767H301.185V274.641ZM304.288 287.204V270.107H279.162V287.204H304.288ZM291.725 257.544H266.7V282.67H291.725V257.544ZM254.137 270.107V287.204H279.263V270.107H254.137ZM269.43 270.107V260.646H244.303V270.107H269.43ZM256.866 273.209H291.725V248.082H256.866V273.209ZM304.288 260.646V251.53H279.162V260.646H304.288ZM291.725 238.967H256.866V264.093H291.725V238.967ZM269.43 251.53V242.553H244.303V251.53H269.43ZM266.7 274.641H256.866V299.767H266.7V274.641ZM269.429 287.204L269.43 270.107L244.303 270.107L244.303 287.204L269.429 287.204Z" fill="white" mask="url(#path-11-inside-1_418_663)"/>
<rect x="462.42" y="303.826" width="412.952" height="6" transform="rotate(180 462.42 303.826)" fill="#64D45E"/>
<rect x="462.42" y="318.855" width="412.952" height="6" transform="rotate(180 462.42 318.855)" fill="#64D45E"/>
</svg>
