<svg xmlns="http://www.w3.org/2000/svg" width="18" height="21" viewBox="0 0 18 21" fill="none">
  <mask id="mask0_1039_10064" style="mask-type:luminance" maskUnits="userSpaceOnUse" x="0" y="0" width="19" height="21">
    <path d="M18.0069 0.238281H0.192749V20.2383H18.0069V0.238281Z" fill="white"/>
  </mask>
  <g mask="url(#mask0_1039_10064)">
    <path d="M17.2433 4.68186L9.85556 0.438443C9.62362 0.303055 9.35981 0.239002 9.09586 0.238281C8.83205 0.238922 8.57613 0.302973 8.33616 0.438362L0.956445 4.68186C0.48215 4.95408 0.192749 5.45048 0.192749 5.99489V14.4817C0.192749 15.0262 0.48215 15.5226 0.956445 15.7948L2.27805 16.5547L2.27483 16.5634L4.21221 17.6763L4.21503 17.6686L4.21744 17.67L4.65025 16.4934L4.6464 16.4913L8.63355 5.61069C8.67372 5.49859 8.59333 5.38651 8.48081 5.38651L8.47278 5.39451H6.5997C6.46302 5.39451 6.33444 5.48258 6.28618 5.61069L2.70917 15.3774L1.5834 14.7301C1.49497 14.682 1.44674 14.5859 1.44674 14.4898V5.99489C1.44674 5.89883 1.50301 5.80277 1.5834 5.75472L8.9632 1.5113C9.00343 1.48729 9.05162 1.47127 9.09988 1.47127V1.47928C9.14814 1.47928 9.19633 1.49529 9.23656 1.51931L16.6163 5.76273C16.7047 5.81077 16.753 5.90683 16.753 6.00295V14.4897C16.753 14.5858 16.6967 14.6819 16.6163 14.7299L15.4969 15.3736L12.5405 7.30796V7.29996C12.4843 7.15584 12.2833 7.15584 12.227 7.29996L11.2543 9.9581C11.2302 10.0302 11.2302 10.1102 11.2543 10.1903L13.5602 16.4872L12.7897 16.9302L10.9006 11.7675C10.8443 11.6234 10.6434 11.6234 10.5871 11.7675L9.6144 14.4256C9.59024 14.4977 9.59024 14.5778 9.6144 14.6578L10.8528 18.0439L9.23656 18.9733C9.19633 18.9973 9.14814 19.0133 9.09988 19.0133C9.05162 19.0133 9.00343 18.9973 8.9632 18.9733L7.35375 18.0478L11.9055 5.61053C11.9456 5.49844 11.8653 5.38634 11.7527 5.38634V5.39435H9.87966C9.74298 5.39435 9.6144 5.48243 9.56614 5.61053L5.60745 16.4148L4.98395 18.1166L4.98934 18.1197L6.92131 19.2295L6.92276 19.2254L8.33616 20.0382C8.56929 20.1743 8.83462 20.2383 9.09988 20.2383C9.36514 20.2383 9.62243 20.1743 9.86359 20.0382L11.2836 19.2216L11.2865 19.2295L13.2239 18.1166L13.2206 18.1078L13.9914 17.6646L13.9956 17.6763L15.933 16.5633L15.9284 16.5509L17.2433 15.7948C17.7176 15.5225 18.007 15.0261 18.007 14.4817V5.99489C18.007 5.45048 17.7176 4.95408 17.2433 4.68186Z" fill="currentColor"/>
  </g>
</svg>
