<?xml version="1.0" standalone="no"?>
<!DOCTYPE svg PUBLIC "-//W3C//DTD SVG 20010904//EN"
 "http://www.w3.org/TR/2001/REC-SVG-20010904/DTD/svg10.dtd">
<svg version="1.0" xmlns="http://www.w3.org/2000/svg"
 width="700.000000pt" height="700.000000pt" viewBox="0 0 700.000000 700.000000"
 preserveAspectRatio="xMidYMid meet">
<metadata>
Created by potrace 1.14, written by Peter Selinger 2001-2017
</metadata>
<g transform="translate(0.000000,700.000000) scale(0.100000,-0.100000)"
fill="#000000" stroke="none">
<path d="M679 4350 c-3 -33 -2 -57 3 -65 6 -10 5623 -14 5632 -4 6 6 9 29 7
57 l-1 22 -2820 0 c-1873 0 -2820 -3 -2821 -10z"/>
<path d="M2787 4160 c-2 -8 -3 -35 -3 -60 l1 -45 123 -3 122 -3 0 -448 c0
-385 2 -450 15 -461 8 -7 12 -16 9 -21 -3 -5 6 -13 19 -18 14 -6 28 -15 32
-20 4 -7 55 -11 136 -11 l130 0 -3 63 -3 62 -105 0 -105 0 -2 475 c-2 261 -4
482 -5 490 -5 22 -355 23 -361 0z"/>
<path d="M681 4150 c-5 -4 -7 -41 -2 -73 1 -4 432 -6 959 -5 l957 3 1 40 1 40
-954 0 c-525 0 -958 -2 -962 -5z"/>
<path d="M3348 4130 c-2 -14 -2 -33 0 -43 3 -16 80 -17 1490 -15 l1487 3 -1
35 c-1 19 -2 37 -3 40 -1 3 -669 5 -1485 5 l-1484 0 -4 -25z"/>
<path d="M679 3923 c-3 -23 -4 -830 -1 -840 3 -8 77 -11 277 -11 l273 -1 61
64 61 63 0 181 0 181 -32 1 c-18 1 -44 0 -57 -1 -13 -1 -26 3 -30 8 -3 6 -6
89 -5 186 l0 176 -273 0 c-150 0 -273 -3 -274 -7z m421 -124 c3 -4 5 -58 5
-121 l0 -113 -147 -2 c-90 -1 -150 2 -153 8 -5 8 -9 148 -6 220 1 14 21 16
149 15 81 0 149 -3 152 -7z m125 -484 l0 -120 -213 0 -212 0 -1 47 c0 27 -1
66 -1 88 0 22 1 56 1 75 l1 35 213 -2 212 -3 0 -120z"/>
<path d="M1734 3919 c-9 -15 -1 -108 10 -111 6 -2 33 -4 61 -3 l49 0 3 40 c5
76 0 83 -63 81 -31 0 -58 -4 -60 -7z"/>
<path d="M2240 3500 l0 -427 60 -2 c43 -1 60 2 61 11 0 7 1 118 1 246 l1 232
209 0 209 0 -3 62 -3 62 -206 -1 -206 0 -1 106 c0 58 -1 113 -1 122 -1 12 -13
16 -61 16 l-60 0 0 -427z"/>
<path d="M1554 3681 c-2 -2 -4 -31 -4 -63 l0 -58 90 0 90 0 1 -60 c0 -33 0
-105 0 -160 0 -55 0 -110 0 -123 -1 -22 -3 -22 -118 -22 l-118 0 -3 -62 -3
-61 306 0 306 0 -3 62 -3 61 -110 0 c-60 0 -114 3 -120 7 -6 4 -10 95 -9 242
0 161 -3 236 -10 237 -35 3 -288 3 -292 0z"/>
<path d="M3514 3681 c-2 -2 -4 -31 -4 -63 l0 -58 240 0 240 0 0 -60 c0 -41 -4
-60 -12 -61 -7 -1 -114 -2 -238 -3 l-225 -1 -2 -182 -2 -182 67 2 67 2 2 105
c0 58 2 110 2 116 1 8 54 12 171 12 l170 1 0 -118 0 -118 63 1 62 1 2 230 c1
145 -2 239 -9 255 -6 14 -35 47 -65 75 l-55 50 -234 0 c-130 0 -237 -2 -240
-4z"/>
<path d="M4270 3682 c-5 -2 -10 -30 -10 -63 l0 -59 210 -2 210 -3 -146 -125
c-81 -69 -156 -133 -168 -144 -11 -10 -40 -34 -63 -53 -42 -35 -43 -36 -43
-98 l0 -64 303 2 302 2 3 60 3 60 -209 0 c-167 -1 -209 2 -205 12 3 7 8 13 12
13 3 0 22 14 41 31 42 37 48 42 223 193 l137 118 0 59 c0 40 -4 59 -12 60 -40
3 -580 3 -588 1z"/>
<path d="M5010 3378 l0 -307 305 0 305 0 0 62 0 62 -240 0 c-268 -1 -250 -7
-247 75 l2 45 141 0 141 0 1 62 0 63 -143 0 -142 0 0 60 1 60 245 0 246 0 -3
62 -3 63 -305 0 -304 0 0 -307z"/>
<path d="M5887 3681 c-6 -2 -37 -29 -67 -59 l-55 -56 -2 -248 -1 -249 61 3 62
3 0 240 0 240 219 5 220 5 1 58 c0 32 -4 57 -10 58 -38 3 -417 3 -428 0z"/>
<path d="M679 2920 c-5 -38 -4 -56 2 -65 5 -7 956 -10 2820 -10 2746 1 2812 1
2819 20 4 10 5 29 2 42 l-4 23 -2819 0 c-1872 0 -2819 -3 -2820 -10z"/>
<path d="M683 2716 c-4 -5 -7 -24 -8 -43 l-1 -33 2822 0 2822 0 5 21 c3 12 2
30 -2 42 l-8 20 -2812 1 c-1666 1 -2815 -3 -2818 -8z"/>
</g>
</svg>
